<svg xmlns="http://www.w3.org/2000/svg">
  <symbol id="search" viewBox="0 0 20 20" fill="none" style="stroke:currentColor">
    <path d="M9.16667 15.8333C12.8486 15.8333 15.8333 12.8486 15.8333 9.16667C15.8333 5.48477 12.8486 2.5 9.16667 2.5C5.48477 2.5 2.5 5.48477 2.5 9.16667C2.5 12.8486 5.48477 15.8333 9.16667 15.8333Z" stroke-width="2" stroke-linecap="round" stroke-linejoin="round"/>
    <path d="M17.5 17.5L13.9167 13.9167" stroke-width="2" stroke-linecap="round" stroke-linejoin="round"/>
  </symbol>
  <symbol id="error" aria-hidden="true" fill="#fb2c36" viewBox="0 0 20 20">
    <path d="M10 .5a9.5 9.5 0 1 0 9.5 9.5A9.51 9.51 0 0 0 10 .5Zm3.707 11.793a1 1 0 1 1-1.414 1.414L10 11.414l-2.293 2.293a1 1 0 0 1-1.414-1.414L8.586 10 6.293 7.707a1 1 0 0 1 1.414-1.414L10 8.586l2.293-2.293a1 1 0 0 1 1.414 1.414L11.414 10l2.293 2.293Z"/>
  </symbol>
  <symbol id="warning" aria-hidden="true" fill="#ff6900" viewBox="0 0 20 20">
    <path d="M10 .5a9.5 9.5 0 1 0 9.5 9.5A9.51 9.51 0 0 0 10 .5ZM10 15a1 1 0 1 1 0-2 1 1 0 0 1 0 2Zm1-4a1 1 0 0 1-2 0V6a1 1 0 0 1 2 0v5Z"/>
  </symbol>
  <symbol id="success" aria-hidden="true" fill="#00c951" viewBox="0 0 20 20">
    <path d="M10 .5a9.5 9.5 0 1 0 9.5 9.5A9.51 9.51 0 0 0 10 .5Zm3.707 8.207-4 4a1 1 0 0 1-1.414 0l-2-2a1 1 0 0 1 1.414-1.414L9 10.586l3.293-3.293a1 1 0 0 1 1.414 1.414Z"/>
  </symbol>
</svg>
