<svg xmlns="http://www.w3.org/2000/svg">
  <symbol id="search" viewBox="0 0 20 20" fill="none" style="stroke:currentColor">
    <path d="M9.16667 15.8333C12.8486 15.8333 15.8333 12.8486 15.8333 9.16667C15.8333 5.48477 12.8486 2.5 9.16667 2.5C5.48477 2.5 2.5 5.48477 2.5 9.16667C2.5 12.8486 5.48477 15.8333 9.16667 15.8333Z" stroke-width="2" stroke-linecap="round" stroke-linejoin="round"/>
    <path d="M17.5 17.5L13.9167 13.9167" stroke-width="2" stroke-linecap="round" stroke-linejoin="round"/>
  </symbol>
  <symbol id="cart" viewBox="0 0 24 24" fill="none" style="stroke:currentColor">
    <path d="M15 11L14 20" stroke-width="2" stroke-linecap="round" stroke-linejoin="round"/>
    <path d="M19 11L15 4" stroke-width="2" stroke-linecap="round" stroke-linejoin="round"/>
    <path d="M2 11H22" stroke-width="2" stroke-linecap="round" stroke-linejoin="round"/>
    <path d="M3.5 11L5.1 18.4C5.1935 18.8586 5.44485 19.2698 5.81028 19.5621C6.17572 19.8545 6.63211 20.0094 7.1 20H16.9C17.3679 20.0094 17.8243 19.8545 18.1897 19.5621C18.5552 19.2698 18.8065 18.8586 18.9 18.4L20.6 11" stroke-width="2" stroke-linecap="round" stroke-linejoin="round"/>
    <path d="M4.5 15.5H19.5" stroke-width="2" stroke-linecap="round" stroke-linejoin="round"/>
    <path d="M5 11L9 4" stroke-width="2" stroke-linecap="round" stroke-linejoin="round"/>
    <path d="M9 11L10 20" stroke-width="2" stroke-linecap="round" stroke-linejoin="round"/>
  </symbol>
  <symbol id="unfavorite" viewBox="0 0 20 20" fill="none" style="stroke:currentColor">
    <path d="M15.8333 11.6667C17.075 10.45 18.3333 8.99167 18.3333 7.08333C18.3333 5.86776 17.8505 4.70197 16.9909 3.84243C16.1314 2.98289 14.9656 2.5 13.75 2.5C12.2833 2.5 11.25 2.91667 10 4.16667C8.75001 2.91667 7.71667 2.5 6.25001 2.5C5.03443 2.5 3.86864 2.98289 3.0091 3.84243C2.14956 4.70197 1.66667 5.86776 1.66667 7.08333C1.66667 9 2.91667 10.4583 4.16667 11.6667L10 17.5L15.8333 11.6667Z" stroke-width="2" stroke-linecap="round" stroke-linejoin="round"/>
  </symbol>
  <symbol id="favorite" viewBox="0 0 20 20" fill="none" style="stroke:currentColor; fill:currentColor">
    <path d="M15.8333 11.6667C17.075 10.45 18.3333 8.99167 18.3333 7.08333C18.3333 5.86776 17.8505 4.70197 16.9909 3.84243C16.1314 2.98289 14.9656 2.5 13.75 2.5C12.2833 2.5 11.25 2.91667 10 4.16667C8.75001 2.91667 7.71667 2.5 6.25001 2.5C5.03443 2.5 3.86864 2.98289 3.0091 3.84243C2.14956 4.70197 1.66667 5.86776 1.66667 7.08333C1.66667 9 2.91667 10.4583 4.16667 11.6667L10 17.5L15.8333 11.6667Z" stroke-width="2" stroke-linecap="round" stroke-linejoin="round"/>
  </symbol>
  <symbol id="catalog" viewBox="0 0 25 24" fill="none">
    <rect x="3.75" y="3" width="7" height="7" rx="2" style="stroke:currentColor" stroke-width="2" stroke-linecap="round" stroke-linejoin="round"/>
    <rect x="3.75" y="14" width="7" height="7" rx="2" style="stroke:currentColor" stroke-width="2" stroke-linecap="round" stroke-linejoin="round"/>
    <rect x="14.75" y="3" width="7" height="7" rx="2" style="stroke:currentColor" stroke-width="2" stroke-linecap="round" stroke-linejoin="round"/>
    <rect x="14.75" y="14" width="7" height="7" rx="2" style="stroke:currentColor" stroke-width="2" stroke-linecap="round" stroke-linejoin="round"/>
  </symbol>
  <symbol id="profile" viewBox="0 0 25 24" fill="none">
    <path d="M18.75 20C18.75 18.4087 18.1179 16.8826 16.9926 15.7574C15.8674 14.6321 14.3413 14 12.75 14C11.1587 14 9.63258 14.6321 8.50736 15.7574C7.38214 16.8826 6.75 18.4087 6.75 20" style="stroke:currentColor" stroke-width="2" stroke-linecap="round" stroke-linejoin="round"/>
    <path d="M12.75 14C14.9591 14 16.75 12.2091 16.75 10C16.75 7.79086 14.9591 6 12.75 6C10.5409 6 8.75 7.79086 8.75 10C8.75 12.2091 10.5409 14 12.75 14Z" style="stroke:currentColor" stroke-width="2" stroke-linecap="round" stroke-linejoin="round"/>
    <path d="M12.75 22C18.2728 22 22.75 17.5228 22.75 12C22.75 6.47715 18.2728 2 12.75 2C7.22715 2 2.75 6.47715 2.75 12C2.75 17.5228 7.22715 22 12.75 22Z" style="stroke:currentColor" stroke-width="2" stroke-linecap="round" stroke-linejoin="round"/>
  </symbol>
  <symbol id="support" viewBox="0 0 25 24" fill="none">
    <path d="M3.25 11H6.25C6.78043 11 7.28914 11.2107 7.66421 11.5858C8.03929 11.9609 8.25 12.4696 8.25 13V16C8.25 16.5304 8.03929 17.0391 7.66421 17.4142C7.28914 17.7893 6.78043 18 6.25 18H5.25C4.71957 18 4.21086 17.7893 3.83579 17.4142C3.46071 17.0391 3.25 16.5304 3.25 16V11ZM3.25 11C3.25 9.8181 3.48279 8.64778 3.93508 7.55585C4.38738 6.46392 5.05031 5.47177 5.88604 4.63604C6.72177 3.80031 7.71392 3.13738 8.80585 2.68508C9.89778 2.23279 11.0681 2 12.25 2C13.4319 2 14.6022 2.23279 15.6942 2.68508C16.7861 3.13738 17.7782 3.80031 18.614 4.63604C19.4497 5.47177 20.1126 6.46392 20.5649 7.55585C21.0172 8.64778 21.25 9.8181 21.25 11M21.25 11V16C21.25 16.5304 21.0393 17.0391 20.6642 17.4142C20.2891 17.7893 19.7804 18 19.25 18H18.25C17.7196 18 17.2109 17.7893 16.8358 17.4142C16.4607 17.0391 16.25 16.5304 16.25 16V13C16.25 12.4696 16.4607 11.9609 16.8358 11.5858C17.2109 11.2107 17.7196 11 18.25 11H21.25Z" style="stroke:currentColor" stroke-width="2" stroke-linecap="round" stroke-linejoin="round"/>
    <path d="M21.25 16V18C21.25 19.0609 20.8286 20.0783 20.0784 20.8284C19.3283 21.5786 18.3109 22 17.25 22H12.25" style="stroke:currentColor" stroke-width="2" stroke-linecap="round" stroke-linejoin="round"/>
  </symbol>
  <symbol id="trash" viewBox="0 0 16 16" fill="none" style="stroke:currentColor">
    <path d="M2 4H14" stroke-width="2" stroke-linecap="round" stroke-linejoin="round"/>
    <path d="M12.6666 4V13.3333C12.6666 14 12 14.6667 11.3333 14.6667H4.66665C3.99998 14.6667 3.33331 14 3.33331 13.3333V4" stroke-width="2" stroke-linecap="round" stroke-linejoin="round"/>
    <path d="M5.33331 3.99999V2.66666C5.33331 1.99999 5.99998 1.33333 6.66665 1.33333H9.33331C9.99998 1.33333 10.6666 1.99999 10.6666 2.66666V3.99999" stroke-width="2" stroke-linecap="round" stroke-linejoin="round"/>
    <path d="M6.66669 7.33333V11.3333" stroke-width="2" stroke-linecap="round" stroke-linejoin="round"/>
    <path d="M9.33337 7.33333V11.3333" stroke-width="2" stroke-linecap="round" stroke-linejoin="round"/>
  </symbol>
  <symbol id="clock" viewBox="0 0 20 20" fill="none" style="stroke:currentColor">
    <g clip-path="url(#clip0_90_1829)">
      <path d="M9.99996 18.3333C14.6023 18.3333 18.3333 14.6024 18.3333 9.99999C18.3333 5.39762 14.6023 1.66666 9.99996 1.66666C5.39759 1.66666 1.66663 5.39762 1.66663 9.99999C1.66663 14.6024 5.39759 18.3333 9.99996 18.3333Z" stroke-width="2" stroke-linecap="round" stroke-linejoin="round"/>
      <path d="M10 5V10L13.3333 11.6667" stroke-width="2" stroke-linecap="round" stroke-linejoin="round"/>
    </g>
    <defs>
      <clipPath id="clip0_90_1829">
        <rect width="20" height="20" fill="white"/>
      </clipPath>
    </defs>
  </symbol>
  <symbol id="right" viewBox="0 0 20 20" fill="none" style="stroke:currentColor">
    <path d="M7.5 15L12.5 10L7.5 5" stroke-width="2" stroke-linecap="round" stroke-linejoin="round"/>
  </symbol>
  <symbol id="cart2" viewBox="0 0 20 20" fill="none" style="stroke:currentColor">
    <path d="M6.66671 18.3333C7.12694 18.3333 7.50004 17.9602 7.50004 17.5C7.50004 17.0398 7.12694 16.6667 6.66671 16.6667C6.20647 16.6667 5.83337 17.0398 5.83337 17.5C5.83337 17.9602 6.20647 18.3333 6.66671 18.3333Z" stroke-width="2" stroke-linecap="round" stroke-linejoin="round"/>
    <path d="M15.8333 18.3333C16.2936 18.3333 16.6667 17.9602 16.6667 17.5C16.6667 17.0398 16.2936 16.6667 15.8333 16.6667C15.3731 16.6667 15 17.0398 15 17.5C15 17.9602 15.3731 18.3333 15.8333 18.3333Z" stroke-width="2" stroke-linecap="round" stroke-linejoin="round"/>
    <path d="M1.70837 1.70831H3.37504L5.59171 12.0583C5.67302 12.4374 5.88393 12.7762 6.18813 13.0165C6.49233 13.2568 6.8708 13.3836 7.25837 13.375H15.4084C15.7877 13.3744 16.1554 13.2444 16.4509 13.0065C16.7463 12.7686 16.9518 12.4371 17.0334 12.0666L18.4084 5.87498H4.26671" stroke-width="2" stroke-linecap="round" stroke-linejoin="round"/>
  </symbol>
  <symbol id="admin" fill="none" viewBox="0 0 24 24">
    <path stroke="currentColor" stroke-linecap="round" stroke-width="2" d="M20 6H10m0 0a2 2 0 1 0-4 0m4 0a2 2 0 1 1-4 0m0 0H4m16 6h-2m0 0a2 2 0 1 0-4 0m4 0a2 2 0 1 1-4 0m0 0H4m16 6H10m0 0a2 2 0 1 0-4 0m4 0a2 2 0 1 1-4 0m0 0H4"/>
  </symbol>
  <symbol id="cart-empty" viewBox="0 0 40 40" fill="none" stroke="currentColor">
    <path d="M25 18.3335L23.3333 33.3335" stroke-width="2" stroke-linecap="round" stroke-linejoin="round"/>
    <path d="M31.6667 18.3334L25 6.66675" stroke-width="2" stroke-linecap="round" stroke-linejoin="round"/>
    <path d="M3.33331 18.3335H36.6666" stroke-width="2" stroke-linecap="round" stroke-linejoin="round"/>
    <path d="M5.83331 18.3335L8.49998 30.6668C8.65582 31.4311 9.07473 32.1165 9.68379 32.6037C10.2928 33.091 11.0535 33.3492 11.8333 33.3335H28.1666C28.9465 33.3492 29.7071 33.091 30.3162 32.6037C30.9252 32.1165 31.3441 31.4311 31.5 30.6668L34.3333 18.3335" stroke-width="2" stroke-linecap="round" stroke-linejoin="round"/>
    <path d="M7.5 25.8335H32.5" stroke-width="2" stroke-linecap="round" stroke-linejoin="round"/>
    <path d="M8.33331 18.3334L15 6.66675" stroke-width="2" stroke-linecap="round" stroke-linejoin="round"/>
    <path d="M15 18.3335L16.6667 33.3335"  stroke-width="2" stroke-linecap="round" stroke-linejoin="round"/>
    <path d="M6 36L34 8" stroke="white" stroke-width="2" stroke-linecap="round" stroke-linejoin="round"/>
    <path d="M6 34L34 6" stroke-width="2" stroke-linecap="round" stroke-linejoin="round"/>
  </symbol>
  <symbol id="down" viewBox="0 0 20 20" fill="none" style="stroke:currentColor">
    <path d="M15 12.5L10 7.5L5 12.5" stroke-width="2" stroke-linecap="round" stroke-linejoin="round"/>
  </symbol>
  <symbol id="no-favorite" viewBox="0 0 40 40" fill="none" style="stroke:currentColor">
    <path d="M31.6666 23.3333C34.1499 20.9 36.6666 17.9833 36.6666 14.1667C36.6666 11.7355 35.7008 9.40394 33.9817 7.68485C32.2626 5.96577 29.9311 5 27.4999 5C24.5666 5 22.4999 5.83333 19.9999 8.33333C17.4999 5.83333 15.4333 5 12.4999 5C10.0688 5 7.73719 5.96577 6.01811 7.68485C4.29902 9.40394 3.33325 11.7355 3.33325 14.1667C3.33325 18 5.83325 20.9167 8.33325 23.3333L19.9999 35L31.6666 23.3333Z" stroke-width="2" stroke-linecap="round" stroke-linejoin="round"/>
    <path d="M4 37L36 5" stroke="white" stroke-width="2" stroke-linecap="round" stroke-linejoin="round"/>
    <path d="M4 35L36 3" stroke-width="2" stroke-linecap="round" stroke-linejoin="round"/>
  </symbol>
  <symbol  id="star" viewBox="0 0 12 12" fill="currentColor">
    <path d="M5.39041 0.372255C5.65808 -0.124085 6.34192 -0.124085 6.60959 0.372255L8.06378 3.06884C8.16363 3.254 8.33562 3.3846 8.53496 3.42664L11.438 4.03887C11.9724 4.15156 12.1837 4.83133 11.8148 5.25077L9.81044 7.52958C9.67281 7.68605 9.60712 7.89737 9.63047 8.10852L9.97048 11.1835C10.0331 11.7495 9.47982 12.1696 8.98415 11.9325L6.29121 10.6443C6.10629 10.5558 5.89371 10.5558 5.70879 10.6443L3.01585 11.9325C2.52018 12.1696 1.96693 11.7495 2.02952 11.1835L2.36953 8.10852C2.39288 7.89737 2.32719 7.68605 2.18956 7.52958L0.18521 5.25077C-0.183715 4.83133 0.0276041 4.15156 0.561954 4.03887L3.46504 3.42664C3.66438 3.3846 3.83637 3.254 3.93622 3.06884L5.39041 0.372255Z"/>
  </symbol>
  <symbol id="checked" viewBox="0 0 14 14" fill="none" stroke="currentColor">
    <path d="M11.375 3.5L5.25 10.5L2.625 7.875" stroke-width="1.4" stroke-linecap="round" stroke-linejoin="round"/>
  </symbol>
  <symbol id="no-image" fill="currentColor" viewBox="0 0 20 18">
    <path d="M18 0H2a2 2 0 0 0-2 2v14a2 2 0 0 0 2 2h16a2 2 0 0 0 2-2V2a2 2 0 0 0-2-2Zm-5.5 4a1.5 1.5 0 1 1 0 3 1.5 1.5 0 0 1 0-3Zm4.376 10.481A1 1 0 0 1 16 15H4a1 1 0 0 1-.895-1.447l3.5-7A1 1 0 0 1 7.468 6a.965.965 0 0 1 .9.5l2.775 4.757 1.546-1.887a1 1 0 0 1 1.618.1l2.541 4a1 1 0 0 1 .028 1.011Z"/>
  </symbol>
  <symbol id="close" viewBox="0 0 24 24" fill="none" stroke="currentColor">
    <path d="M18 6L6 18" stroke-width="2" stroke-linecap="round" stroke-linejoin="round"/>
    <path d="M6 6L18 18" stroke-width="2" stroke-linecap="round" stroke-linejoin="round"/>
  </symbol>
  <symbol id="add-img" viewBox="0 0 24 24" fill="none" stroke="currentColor">
    <path d="M16 5H22" stroke-width="2" stroke-linecap="round" stroke-linejoin="round"/>
    <path d="M19 2V8" stroke-width="2" stroke-linecap="round" stroke-linejoin="round"/>
    <path d="M21 11.5V19C21 19.5304 20.7893 20.0391 20.4142 20.4142C20.0391 20.7893 19.5304 21 19 21H5C4.46957 21 3.96086 20.7893 3.58579 20.4142C3.21071 20.0391 3 19.5304 3 19V5C3 4.46957 3.21071 3.96086 3.58579 3.58579C3.96086 3.21071 4.46957 3 5 3H12.5" stroke-width="2" stroke-linecap="round" stroke-linejoin="round"/>
    <path d="M21 14.9999L17.914 11.9139C17.5389 11.539 17.0303 11.3284 16.5 11.3284C15.9697 11.3284 15.4611 11.539 15.086 11.9139L6 20.9999" stroke-width="2" stroke-linecap="round" stroke-linejoin="round"/>
    <path d="M9 11C10.1046 11 11 10.1046 11 9C11 7.89543 10.1046 7 9 7C7.89543 7 7 7.89543 7 9C7 10.1046 7.89543 11 9 11Z" stroke-width="2" stroke-linecap="round" stroke-linejoin="round"/>
  </symbol>
  <symbol id="info" viewBox="0 0 16 16" fill="none" stroke="currentColor">
    <path d="M8 14C11.3137 14 14 11.3137 14 8C14 4.68629 11.3137 2 8 2C4.68629 2 2 4.68629 2 8C2 11.3137 4.68629 14 8 14Z" stroke-width="2" stroke-linecap="round" stroke-linejoin="round"/>
    <path d="M8 11V8" stroke-width="2" stroke-linecap="round" stroke-linejoin="round"/>
    <path d="M8 5.33333H8.00667" stroke-width="2" stroke-linecap="round" stroke-linejoin="round"/>
  </symbol>
  <symbol id="menu" viewBox="0 0 24 24">
    <rect x="3" y="4" width="7" height="7" />
    <rect x="14" y="4" width="7" height="7" />
    <rect x="3" y="14" width="7" height="7" />
    <rect x="14" y="14" width="7" height="7" />
  </symbol>
  <symbol id="vegetable" viewBox="0 0 24 24">
    <path d="M18 6h-3.59l2.3-2.29a1 1 0 1 0-1.42-1.42L13 4.59V1a1 1 0 0 0-2 0v3.59L8.71 2.3A1 1 0 1 0 7.3 3.71L9.59 6H6a1 1 0 0 0-1 1v4a5 5 0 0 0 3.54 4.78 5 5 0 0 0 6.92 0A5 5 0 0 0 19 11V7a1 1 0 0 0-1-1zm-6 11a3 3 0 1 1 3-3 3 3 0 0 1-3 3z" />
  </symbol>
  <symbol id="coffee" viewBox="0 0 24 24">
    <path d="M20 3H4v10c0 2.21 1.79 4 4 4h6c2.21 0 4-1.79 4-4v-3h2c1.11 0 2-.9 2-2V5c0-1.11-.89-2-2-2zm0 5h-2V5h2v3zM4 19h16v2H4z"/>
    <path d="M6 7h10v3c0 1.66-1.34 3-3 3h-4c-1.66 0-3-1.34-3-3V7z" opacity="0.3"/>
  </symbol>
  <symbol id="door" fill="none" viewBox="0 0 24 24" stroke="currentColor">
    <path stroke-linecap="round" stroke-linejoin="round" stroke-width="2" d="M18 18V6h-5v12h5Zm0 0h2M4 18h2.5m3.5-5.5V12M6 6l7-2v16l-7-2V6Z"/>
  </symbol>
  <symbol id="tea" viewBox="0 0 25 25">
    <path d="M24.72,13.89c0-0.01-0.01-0.02-0.01-0.03c-0.01-0.02-0.02-0.03-0.02-0.05c-0.35-1.47-1.37-2.28-2.88-2.28   h-0.46V10.5c0-0.82-0.37-1.19-1.19-1.19H3.63l-0.06,0c-0.05,0-0.11,0-0.16,0c-0.56,0.04-0.94,0.43-0.95,0.98c0,0.39,0,0.77,0,1.16   l0,0.01c0,0.02-0.1,1.9,0.24,3.07c0.68,2.88,2.4,5.03,5.11,6.4c0.06,0.03,0.12,0.06,0.18,0.09H7.91c-0.62,0-1.23,0-1.85,0   c-1.58,0-3.21,0-4.82-0.01c0,0-0.01,0-0.01,0c-0.33,0-0.6,0.11-0.76,0.31c-0.17,0.21-0.22,0.49-0.15,0.83   c0.2,0.99,0.97,1.61,2.01,1.61c4.93,0,9.87,0,14.8,0l0,0.01h2.35l0.06,0l0.1,0c0.31,0,0.62,0,0.94,0c0.34,0,0.67,0,1.01-0.01   c0.9-0.02,1.64-0.59,1.88-1.47c0.11-0.39,0.07-0.71-0.11-0.94C23.18,21.12,22.89,21,22.51,21c-0.01,0-0.02,0-0.02,0   c-1.58,0.02-3.19,0.02-4.75,0.01c-0.62,0-1.25,0-1.87,0h-0.07c0.84-0.39,1.64-0.9,2.36-1.52c0.06-0.06,0.18-0.1,0.28-0.1   c0.22-0.01,0.44-0.01,0.65-0.01c0.4,0,0.82,0.01,1.22-0.06c2.13-0.34,3.55-1.56,4.22-3.63c0.06-0.19,0.1-0.39,0.14-0.59   c0.02-0.09,0.04-0.18,0.06-0.28v-0.9L24.72,13.89z M1.13,21.87h21.52c-0.01,0.59-0.49,1.02-1.14,1.02c-0.28,0-0.57,0-0.85,0   c-0.29,0-0.58,0-0.87,0c-0.09,0-0.18,0-0.26,0l-2.26,0c-4.92,0-9.84,0-14.77,0H2.49c-0.12,0-0.22,0-0.33-0.01   C1.59,22.86,1.18,22.44,1.13,21.87z M22.03,13.66c0.32,0.03,0.56,0.27,0.57,0.6c0.07,1.41-1.14,2.83-2.53,2.98   c-0.02,0-0.04,0-0.07,0c0.66-1.12,1.07-2.3,1.24-3.58c0.07,0,0.14,0,0.21,0C21.67,13.65,21.85,13.64,22.03,13.66z M19.15,18.46   c0.08-0.11,0.15-0.2,0.23-0.27c0.05-0.04,0.14-0.07,0.26-0.07c1.61-0.02,3.02-0.99,3.58-2.5c0.19-0.52,0.27-1.01,0.23-1.49   c-0.07-0.73-0.69-1.31-1.43-1.31c-0.16,0-0.32,0-0.49,0l-0.17,0v-0.41c1.2-0.13,1.95,0.23,2.37,1.13c0.26,0.57,0.17,1.15,0.04,1.7   c-0.43,1.78-1.82,3.02-3.64,3.26c-0.24,0.03-0.49,0.02-0.75,0.01c-0.09,0-0.18-0.01-0.27-0.01C19.12,18.49,19.14,18.47,19.15,18.46   z M10.21,20.83c-3.11-0.65-5.27-2.53-6.41-5.57c-0.13-0.36-0.21-0.74-0.29-1.13c-0.02-0.12-0.22-1.19-0.2-2.5c0-0.03,0-0.07,0-0.1   c0-0.2,0-0.39,0-0.59l0-0.51c0-0.26,0-0.26,0.27-0.26c1.29,0,2.58,0,3.87,0c0.04,0,0.09,0,0.14,0.01l0.02,0l0,0.28   c0,0.39,0,0.77,0,1.15c0,0.03-0.02,0.07-0.04,0.09c-0.29,0.29-0.58,0.57-0.87,0.86c-0.22,0.21-0.43,0.42-0.65,0.64   c-0.19,0.19-0.29,0.42-0.28,0.7c0,0.54,0,1.07,0,1.61c0,0.44,0,0.88,0,1.31c0,0.56,0.39,0.96,0.95,0.96c0.87,0,1.74,0,2.61,0   c0.59,0,0.97-0.38,0.97-0.96c0-0.5,0-0.99,0-1.49c0-0.48,0-0.95,0-1.43c0-0.28-0.1-0.52-0.3-0.72c-0.13-0.13-0.26-0.26-0.38-0.4   c-0.28-0.3-0.58-0.61-0.9-0.88c-0.24-0.2-0.28-0.4-0.27-0.7c0.01-0.25,0.01-0.51,0-0.76c0-0.09,0-0.18,0-0.27l0.01,0   c0.03,0,0.04-0.01,0.06-0.01l2.45,0c3.11,0,6.22,0,9.32,0c0,0,0,0,0,0c0.08,0,0.13,0.01,0.17,0.05c0.03,0.03,0.05,0.09,0.05,0.18   c0,0.2,0,0.4,0,0.6c0,0.35,0.01,0.71-0.01,1.06c-0.01,0.14-0.01,0.27-0.02,0.41c-0.02,0.56-0.05,1.15-0.16,1.7   C19.33,18.8,14.8,21.79,10.21,20.83z M8.44,13.6c0-0.2,0-0.4,0-0.61l0-0.13l0.17,0.17c0.28,0.27,0.55,0.52,0.81,0.79   c0.02,0.02,0.03,0.06,0.04,0.18c0,0.41,0,0.81,0,1.22c0,0.51,0,1.02,0,1.53c0,0.08-0.01,0.14-0.04,0.17   c-0.03,0.03-0.08,0.04-0.16,0.04c0,0,0,0,0,0c-0.42,0-0.84,0-1.27,0c-0.4,0-0.8,0-1.2,0c-0.08,0-0.13-0.01-0.16-0.04   c-0.03-0.03-0.04-0.08-0.04-0.15c0-0.33,0-0.66,0-1c0-0.6,0-1.2,0-1.8c0-0.07,0.03-0.15,0.07-0.19c0.25-0.25,0.5-0.5,0.77-0.76   l0.17-0.16v0.14c0,0.21,0,0.42,0,0.62c0,0.29,0.16,0.47,0.41,0.48h0c0,0,0.01,0,0.01,0c0.12,0,0.21-0.03,0.28-0.1   C8.39,13.89,8.43,13.77,8.44,13.6z"/>
    <path d="M11.62,5.19l0.05,0.06c0.26,0.3,0.34,0.58,0.25,0.86c-0.07,0.22-0.2,0.45-0.41,0.71   c-0.25,0.32-0.49,0.69-0.5,1.17c0,0.31,0.14,0.51,0.39,0.52c0.01,0,0.02,0,0.03,0c0.22,0,0.38-0.18,0.42-0.47   c0.02-0.13,0.04-0.28,0.1-0.38c0.1-0.15,0.21-0.3,0.32-0.44c0.04-0.05,0.08-0.1,0.12-0.16c0.52-0.67,0.51-1.56-0.01-2.23   c-0.05-0.06-0.1-0.12-0.15-0.18c-0.07-0.08-0.15-0.17-0.21-0.26c-0.27-0.37-0.27-0.79,0-1.17c0.08-0.11,0.17-0.22,0.26-0.32   c0.03-0.04,0.07-0.08,0.1-0.12c0.25-0.3,0.38-0.67,0.39-1.09c0-0.13-0.04-0.25-0.12-0.33c-0.07-0.08-0.17-0.12-0.27-0.12   c0,0-0.01,0-0.01,0c-0.24,0-0.4,0.13-0.41,0.33c-0.02,0.45-0.29,0.77-0.55,1.08c-0.36,0.43-0.48,0.94-0.36,1.56   C11.13,4.62,11.38,4.91,11.62,5.19z"/>
    <path d="M14.29,5.2l0.01,0.02c0.27,0.31,0.36,0.6,0.27,0.88c-0.07,0.22-0.2,0.46-0.4,0.71   c-0.25,0.32-0.49,0.69-0.5,1.16c-0.01,0.33,0.14,0.53,0.4,0.54c0.01,0,0.01,0,0.02,0c0.23,0,0.38-0.18,0.42-0.48   c0.02-0.17,0.06-0.3,0.12-0.4c0.09-0.14,0.2-0.28,0.3-0.41c0.05-0.06,0.09-0.12,0.14-0.17c0.5-0.65,0.5-1.56,0-2.21   c-0.05-0.06-0.1-0.13-0.15-0.19c-0.07-0.08-0.14-0.17-0.2-0.25c-0.28-0.38-0.28-0.8,0-1.18c0.08-0.11,0.16-0.21,0.24-0.31   c0.04-0.04,0.07-0.09,0.11-0.13c0.24-0.29,0.37-0.65,0.38-1.06c0.01-0.25-0.15-0.45-0.38-0.46c-0.13-0.01-0.25,0.03-0.33,0.1   c-0.07,0.06-0.1,0.14-0.11,0.24c-0.02,0.44-0.27,0.75-0.52,1.04c-0.39,0.44-0.52,0.99-0.38,1.63C13.81,4.64,14.05,4.93,14.29,5.2z"/>
    <path d="M8.72,4.84c0.05,0.08,0.09,0.15,0.14,0.23C8.9,5.15,8.96,5.23,9.01,5.3c0.1,0.15,0.2,0.3,0.25,0.45   c0.13,0.42-0.11,0.75-0.37,1.03C8.54,7.16,8.37,7.55,8.36,7.96C8.35,8.3,8.5,8.49,8.75,8.51c0.01,0,0.02,0,0.02,0   c0.33,0,0.4-0.37,0.42-0.5C9.23,7.85,9.3,7.67,9.4,7.49c0.06-0.1,0.13-0.19,0.21-0.28c0.05-0.05,0.09-0.1,0.13-0.16   c0.51-0.66,0.5-1.57-0.01-2.22C9.69,4.77,9.65,4.71,9.6,4.65C9.53,4.57,9.45,4.48,9.38,4.38C9.12,4.02,9.12,3.6,9.37,3.24   C9.46,3.12,9.55,3.01,9.64,2.9c0.03-0.04,0.07-0.08,0.1-0.12c0.24-0.29,0.37-0.65,0.39-1.06c0.01-0.25-0.14-0.44-0.37-0.47   C9.65,1.23,9.53,1.26,9.44,1.34C9.36,1.4,9.32,1.49,9.31,1.58C9.29,2.01,9.06,2.32,8.77,2.64C8.38,3.1,8.25,3.65,8.41,4.23   C8.47,4.44,8.6,4.64,8.72,4.84z"/>
  </symbol>
  <symbol id="meat" viewBox="0 0 25 25">
    <path d="M24.69,7.67c-0.01-0.11-0.02-0.22-0.03-0.33c0-0.05-0.02-0.09-0.04-0.14C24.38,5.6,23,4.5,21.79,4.01   c-2.53-1.03-5.51-0.81-7.83-0.5c-3.05,0.4-5.42,0.97-7.47,1.77c-3.66,1.44-6.94,4.91-6.15,8.75c0,0.02-0.01,0.04-0.01,0.07   c0.15,2.75,0.67,5.73,3.44,6.92c1.16,0.5,2.34,0.74,3.58,0.74c1.66,0,3.42-0.44,5.37-1.33c1.68-0.77,3.02-1.64,3.96-2.59   c0.61-0.62,1.13-1.33,1.63-2.02c0.55-0.76,1.11-1.54,1.81-2.19c0.72-0.68,1.44-1.01,2.27-1.4c0.26-0.12,0.53-0.25,0.81-0.39   c0.34-0.17,0.63-0.32,0.91-0.63C24.94,10.25,24.81,8.88,24.69,7.67z M23.66,8.69c-0.53,1.03-1.71,1.58-2.84,2.11   c-0.68,0.31-1.31,0.61-1.83,1c-1.01,0.76-1.85,1.72-2.66,2.65c-0.59,0.68-1.2,1.38-1.87,1.99c-2.53,2.31-5.9,3.4-8.6,2.77   c-1.99-0.46-3.49-1.84-4.31-3.97c-0.01-0.02-0.02-0.03-0.02-0.03c0-0.01,0-0.03-0.01-0.04c-1.03-2.15-0.45-4.83,1.49-6.84   c1.75-1.81,4.34-2.65,6.39-3.17c1.99-0.51,4.99-1.18,8.01-1.12c1.15,0.02,2.64,0.1,3.96,0.61c1.12,0.43,2.4,1.47,2.55,2.75   C23.96,7.83,23.88,8.26,23.66,8.69z M4.5,19.66c1.82,0.74,4.04,0.75,6.11,0.03c2.51-0.88,4.28-2.7,6-4.47   c1.47-1.51,2.99-3.07,4.96-4.03c0.88-0.43,1.76-0.92,2.36-1.6c-0.15,0.76-0.56,1.28-1.28,1.67c-0.27,0.14-0.53,0.27-0.79,0.4   c-0.8,0.39-1.56,0.76-2.27,1.44c-0.83,0.8-1.53,1.74-2.2,2.64l-0.14,0.19c-0.95,1.28-2.04,2.25-3.54,3.14   c-1.68,1-4.96,2.55-8.12,1.76c-1.99-0.5-3.12-1.36-3.79-2.88c-0.18-0.41-0.32-0.82-0.42-1.26C2.16,18.16,3.16,19.11,4.5,19.66z"/>
    <path d="M20.63,5.48c-1.17-0.61-2.87-0.54-4.12-0.5l-0.04,0c-2.01,0.07-3.92,0.51-5.55,0.92   C7.4,6.78,1.5,8.25,2.03,13.62c0,0.02,0.01,0.03,0.01,0.04c0,0.01,0,0.03,0,0.05c0.33,1.7,1.29,2.97,2.77,3.68   c0.86,0.41,1.88,0.61,2.98,0.61c0.57,0,1.17-0.06,1.77-0.17c1.99-0.37,3.52-1.75,4.64-2.91l0.14-0.14   c1.63-1.69,3.17-3.28,5.12-4.58c0.17-0.11,0.35-0.22,0.54-0.33c0.92-0.56,1.97-1.19,1.97-2.42C21.99,6.72,21.27,5.81,20.63,5.48z    M17.69,10.57c-0.16,0.12-0.32,0.25-0.49,0.37c-0.99,0.74-1.84,1.65-2.65,2.53c-0.4,0.43-0.8,0.87-1.23,1.28   c-1.68,1.66-3.38,2.44-5.52,2.51c-2.62,0.09-4.55-1.33-5.02-3.71c-0.45-4.92,5.01-6.17,9-7.09c0.24-0.06,0.48-0.11,0.71-0.16   c0.88-0.21,3.09-0.68,5.05-0.68c1.13,0,2.17,0.16,2.84,0.6c0.4,0.27,0.64,0.64,0.71,1.1c0.15,0.97-0.64,1.42-1.4,1.86   c-0.16,0.09-0.31,0.18-0.45,0.27C18.7,9.8,18.18,10.19,17.69,10.57z"/>
    <path d="M8.84,10.21L8.75,10.2c-0.02,0-0.03,0-0.04,0c-0.01,0-0.03-0.01-0.05-0.01c-1.05-0.1-2.79,0.4-3.19,1.55   c-0.13,0.39-0.1,0.76,0.11,1.09c0.29,0.46,0.9,0.81,1.56,0.89c0.11,0.01,0.22,0.02,0.33,0.02c0.96,0,2.12-0.47,2.62-1.45   c0.26-0.51,0.21-1.14-0.12-1.56C9.69,10.34,9.26,10.28,8.84,10.21z M9.02,12.43C8.62,12.79,8,13,7.39,12.98   c-0.57-0.02-1.05-0.31-1.14-0.67c-0.08-0.32,0.15-0.67,0.65-0.97c0.48-0.29,1.17-0.45,1.76-0.4l0.02,0l0,0l0.07,0.01   c0.15,0.01,0.31,0.03,0.42,0.09c0.2,0.1,0.31,0.24,0.33,0.42C9.54,11.78,9.28,12.19,9.02,12.43z"/>
    <path d="M14.65,6.77c-0.24,0-0.37,0.19-0.37,0.38c0,0.1,0.03,0.19,0.09,0.26c0.07,0.08,0.16,0.12,0.28,0.12   c0.24,0,0.37-0.19,0.37-0.38c0-0.1-0.03-0.19-0.09-0.26C14.85,6.81,14.76,6.77,14.65,6.77z"/>
    <path d="M19.06,6.54c-1.11-0.7-2.37-0.49-3.58-0.16c-0.23,0.06-0.3,0.28-0.25,0.46c0.05,0.18,0.22,0.33,0.45,0.26   c1.05-0.29,2.08-0.5,2.99,0.08c0.06,0.04,0.13,0.06,0.2,0.06c0.05,0,0.1-0.01,0.15-0.04c0.12-0.06,0.21-0.2,0.21-0.34   C19.24,6.74,19.18,6.62,19.06,6.54z"/>
  </symbol>
  <symbol id="nuts" viewBox="0 0 25 25">
	<path d="M24.77,13.23c-0.15-0.79-0.39-1.45-0.74-2.02c-0.35-0.57-0.79-1.04-1.31-1.39c-0.11-0.08-0.23-0.15-0.35-0.22   l-0.08-0.05c0,0,0-0.01,0.01-0.01c0.25-0.34,0.45-0.71,0.59-1.08c0.36-0.92,0.42-1.88,0.19-2.85c-0.05-0.21-0.16-0.36-0.35-0.47   c-0.05-0.03-0.09-0.05-0.14-0.07c-0.41-0.19-0.85-0.26-1.27-0.31c-0.71-0.08-1.48-0.1-2.35-0.06c-0.1,0-0.21,0.05-0.29,0.13   c-0.12,0.11-0.14,0.27-0.06,0.44c0.07,0.14,0.19,0.21,0.37,0.21c0.01,0,0.01,0,0.02,0c0.8-0.02,1.66-0.03,2.5,0.1   c0.13,0.02,0.25,0.05,0.38,0.07c0,0,0,0,0,0l-1.54,1.11c-0.45,0.32-0.89,0.64-1.34,0.97c-0.15,0.11-0.2,0.27-0.15,0.44   c0.04,0.13,0.13,0.22,0.25,0.25c0.12,0.04,0.26,0.01,0.39-0.07l2.92-2.1v0c0.01,0.1,0.02,0.19,0.03,0.28   c0.04,0.98-0.25,1.88-0.87,2.68c-0.01,0.01-0.01,0.01-0.01,0.02c0,0-0.01,0-0.02-0.01c-0.78-0.27-1.6-0.37-2.52-0.3   c-0.15,0.01-0.3,0.03-0.45,0.05l-0.1,0.01c0-0.02,0-0.04,0-0.06c0-0.02,0-0.05,0-0.07c0-0.03,0-0.06,0.01-0.09   c0.01-0.69,0.01-1.61-0.12-2.51c-0.12-0.83-0.29-1.5-0.55-2.09s-0.55-1.04-0.92-1.38c-0.18-0.17-0.37-0.2-0.6-0.1   c-0.35,0.15-0.68,0.34-1,0.6c-0.5,0.39-0.98,0.88-1.51,1.54c-0.46,0.57-0.9,1.18-1.31,1.82c-0.07,0.11-0.09,0.22-0.06,0.33   c0.02,0.1,0.09,0.18,0.18,0.24c0.19,0.11,0.41,0.05,0.55-0.15l0.27-0.38c0.29-0.42,0.6-0.86,0.92-1.28   c0.48-0.63,0.97-1.13,1.49-1.53c0.11-0.08,0.22-0.16,0.33-0.24c0.01,0,0.01-0.01,0.02-0.01c-0.01,0.05-0.02,0.09-0.03,0.14   c-0.04,0.22-0.09,0.44-0.15,0.66c-0.3,1.03-0.57,1.93-0.82,2.74c-0.12,0.4-0.27,0.8-0.4,1.18c-0.06,0.17-0.12,0.34-0.18,0.51   c-0.08,0.22,0.01,0.44,0.2,0.52c0.1,0.04,0.21,0.04,0.31,0c0.1-0.04,0.18-0.13,0.22-0.25l0.15-0.41c0.14-0.4,0.29-0.81,0.41-1.22   c0.31-0.99,0.61-1.99,0.86-2.85c0.06-0.19,0.1-0.37,0.14-0.57c0-0.02,0.01-0.04,0.01-0.05c0.28,0.51,0.48,1.09,0.61,1.78   c0.1,0.53,0.15,0.96,0.17,1.36c0.02,0.45,0.02,0.91,0.02,1.36c0,0.2,0,0.41,0,0.62c0,0-0.01,0-0.03,0.01L17.48,9.2   c-0.27,0.08-0.55,0.17-0.82,0.27c-0.65,0.24-1.22,0.6-1.68,1.07c-0.58,0.58-0.98,1.29-1.23,2.17c-0.03-0.37-0.06-0.74-0.11-1.12   c-0.15-1.08-0.44-2.14-0.86-3.15c-0.15-0.35-0.3-0.72-0.59-1.02c-0.68-0.7-1.76-0.83-2.62-0.32c-0.04,0.02-0.05,0.02-0.09,0   C8.61,6.62,7.74,6.35,6.85,6.29c-0.83-0.06-1.67,0.07-2.49,0.4C3.6,6.99,2.85,7.46,2.08,8.12c-0.49,0.42-0.85,0.85-1.1,1.32   c-0.49,0.91-0.65,1.94-0.49,3.12c0.04,0.3,0.11,0.6,0.17,0.89c0.03,0.15,0.07,0.3,0.1,0.45c0,0.01,0,0.04-0.01,0.05   c-0.04,0.07-0.08,0.14-0.12,0.21c-0.07,0.11-0.14,0.23-0.2,0.35c-0.28,0.57-0.38,1.06-0.3,1.54c0.07,0.45,0.3,0.83,0.67,1.09   c0.33,0.23,0.68,0.44,1.04,0.66c1.03,0.61,1.98,1.06,2.89,1.36c0.71,0.23,1.31,0.34,1.87,0.34c0.01,0,0.02,0,0.02,0   c0.12,0,0.23-0.01,0.35-0.01l0.09,0l0,0c0.14,0.65,0.4,1.18,0.81,1.61c0.72,0.76,1.67,1.18,2.9,1.27c0.18,0.01,0.37,0.02,0.56,0.02   c0.41,0,0.84-0.03,1.28-0.1c0.73-0.11,1.3-0.28,1.82-0.54c1.12-0.58,1.76-1.5,1.9-2.73c0.07-0.62-0.01-1.25-0.23-1.94   c-0.01-0.02-0.01-0.04-0.02-0.06c0.4,0.1,0.81,0.17,1.22,0.2c0.63,0.05,1.26,0.02,1.89-0.08c1.08-0.18,2.08-0.53,2.96-1.06   c0.61-0.36,1.09-0.83,1.43-1.38c0.23-0.37,0.38-0.77,0.46-1.21c0.02,0.13,0.04,0.27,0.06,0.4c0.09,0.69,0.06,1.36-0.1,1.99   c-0.24,0.97-0.75,1.77-1.5,2.39c-0.56,0.46-1.23,0.81-1.99,1.02c-0.66,0.19-1.45,0.36-2.28,0.24c-0.44-0.07-0.75-0.19-0.99-0.41   c-0.15-0.13-0.38-0.13-0.52,0.01c-0.15,0.15-0.17,0.38-0.03,0.54c0.05,0.06,0.12,0.12,0.2,0.17c0.44,0.31,0.97,0.47,1.66,0.51   c0.69,0.03,1.4-0.07,2.25-0.32c0.96-0.29,1.75-0.73,2.43-1.35c0.31-0.29,0.59-0.61,0.82-0.96c0.52-0.78,0.82-1.69,0.88-2.69   C24.94,14.47,24.9,13.88,24.77,13.23z M15.36,13.74c0.12-0.89,0.57-1.6,1.34-2.13c0.69-0.47,1.38-0.74,2.09-0.81   c0.16-0.02,0.32-0.03,0.48-0.03c0.9,0,1.69,0.28,2.37,0.85c0.38,0.32,0.64,0.77,0.77,1.38c0.13,0.61,0.11,1.21-0.07,1.78   c-0.06,0.19-0.16,0.32-0.32,0.44c-0.5,0.35-1.08,0.63-1.84,0.87c-0.74,0.24-1.5,0.36-2.33,0.37c-0.77-0.01-1.49-0.13-2.12-0.37   c-0.02-0.01-0.04-0.02-0.04-0.03C15.37,15.26,15.27,14.5,15.36,13.74z M18.85,10.01c-1.28,0.12-2.38,0.64-3.28,1.55   c-0.52,0.53-0.85,1.21-0.97,2.02c-0.07,0.45-0.07,0.93,0.01,1.44c-0.11-0.07-0.21-0.13-0.3-0.19c0,0-0.01-0.02-0.01-0.03   c-0.02-0.45,0.01-0.91,0.1-1.38c0.13-0.71,0.38-1.3,0.74-1.82c0.4-0.58,0.97-1.03,1.67-1.32c0.65-0.27,1.29-0.45,1.93-0.53   c0.29-0.04,0.56-0.05,0.83-0.05c0.84,0,1.59,0.17,2.3,0.52c0.5,0.25,0.86,0.63,1.11,1.19c0.23,0.51,0.34,1.01,0.33,1.52   c0,0.13-0.02,0.28-0.04,0.42c-0.02-0.24-0.07-0.48-0.13-0.71c-0.24-0.9-0.78-1.58-1.59-2.04C20.69,10.11,19.79,9.92,18.85,10.01z    M10.36,10.94c-0.24,0.63-0.62,1.2-1.22,1.8c-1.01,1.02-2.01,1.78-3.05,2.31c-0.63,0.32-1.22,0.51-1.81,0.58   c-0.58,0.07-1.09,0-1.57-0.2c-0.43-0.18-0.73-0.49-0.91-0.92c-0.31-0.77-0.5-1.52-0.56-2.26c-0.07-0.85,0.03-1.58,0.33-2.23   c0.17-0.38,0.4-0.71,0.68-0.98c0.71-0.69,1.43-1.19,2.2-1.53c0.66-0.29,1.33-0.44,2-0.44c0,0,0.01,0,0.01,0   c0.86,0,1.69,0.23,2.55,0.69c0.26,0.14,0.54,0.31,0.81,0.49c0.22,0.15,0.36,0.39,0.47,0.6C10.62,9.49,10.65,10.18,10.36,10.94z    M2.81,16.3c0.7,0.19,1.44,0.19,2.24-0.01c0.85-0.21,1.66-0.6,2.56-1.23c0.92-0.64,1.69-1.31,2.35-2.04   c0.56-0.62,0.94-1.24,1.17-1.89c0.32-0.91,0.27-1.79-0.13-2.61c-0.16-0.33-0.32-0.53-0.69-0.87c0.43-0.15,0.99-0.01,1.32,0.34   c0.24,0.27,0.38,0.6,0.42,1.03c0.06,0.62-0.07,1.25-0.42,2.03c-0.22,0.49-0.52,0.97-0.91,1.48c-0.46,0.6-1,1.15-1.63,1.7   c-0.67,0.58-1.32,1.05-1.99,1.44c-1.02,0.6-2,0.97-3,1.16c-0.92,0.17-1.66,0.15-2.31-0.06c-0.19-0.06-0.38-0.16-0.56-0.28   c-0.24-0.16-0.36-0.41-0.36-0.73c0-0.24,0.1-0.6,0.23-0.85c0.03,0.07,0.06,0.13,0.1,0.2C1.54,15.68,2.08,16.1,2.81,16.3z    M8.11,16.58c0.41-0.96,1.16-1.54,2.22-1.73c0.29-0.05,0.59-0.08,0.88-0.08c0.89,0,1.77,0.24,2.69,0.71   c0.68,0.36,1.14,0.94,1.44,1.84c0.19,0.56,0.25,1.08,0.19,1.6c-0.09,0.88-0.53,1.55-1.28,2.01c-0.42,0.25-0.91,0.42-1.51,0.53   c-0.48,0.09-0.97,0.13-1.49,0.12h0c-0.65,0.03-1.28-0.09-1.87-0.36c-0.97-0.44-1.51-1.2-1.62-2.26C7.68,18.12,7.8,17.32,8.11,16.58   z M12.96,14.26C12.32,14.09,11.72,14,11.15,14c-0.25,0-0.5,0.02-0.75,0.05c1.18-1.21,1.89-2.32,2.26-3.53   C12.9,11.32,13.06,13.28,12.96,14.26z M7.33,16.42c-0.26,0.68-0.38,1.42-0.38,2.28c-0.05,0-0.1,0-0.15,0c-0.18,0-0.34,0-0.51,0   c-0.4-0.02-0.84-0.12-1.37-0.3c-0.54-0.18-1.09-0.42-1.67-0.71C4.59,17.61,5.9,17.21,7.33,16.42z"/>
    <path d="M3.11,13.08c-0.15-0.55-0.2-1.14-0.16-1.92c0-0.08,0-0.15-0.02-0.2c-0.06-0.16-0.22-0.27-0.39-0.25   c-0.19,0.02-0.33,0.16-0.35,0.33c-0.02,0.15-0.02,0.3-0.03,0.42l-0.01,0.12c0.01,0.63,0.05,1.31,0.29,1.97   c0.13,0.38,0.31,0.69,0.55,0.93c0.08,0.08,0.18,0.12,0.29,0.12c0.09,0,0.19-0.03,0.26-0.1c0.08-0.07,0.12-0.17,0.13-0.27   c0.01-0.1-0.03-0.2-0.09-0.27C3.36,13.74,3.22,13.46,3.11,13.08z"/>
    <path d="M18.49,12.13c0.43-0.09,0.88-0.1,1.34-0.01c0.35,0.07,0.69,0.2,1.01,0.39c0.07,0.04,0.14,0.06,0.21,0.06   c0.08,0,0.15-0.03,0.23-0.08c0.13-0.09,0.18-0.23,0.15-0.4c-0.03-0.17-0.16-0.25-0.25-0.3c-0.58-0.34-1.24-0.52-2.01-0.55l-0.01,0   l-0.01,0c-0.09,0.01-0.18,0.02-0.26,0.03c-0.2,0.03-0.41,0.05-0.61,0.09c-0.14,0.03-0.25,0.12-0.29,0.26   c-0.04,0.13-0.01,0.28,0.09,0.39C18.18,12.13,18.31,12.17,18.49,12.13z"/>
  </symbol>
  <symbol id="sausage" viewBox="0 0 25 25">
	<path d="M7.64,21.29c-0.3,0-0.54,0.22-0.55,0.52c0,0.15,0.05,0.29,0.16,0.4c0.1,0.1,0.24,0.16,0.38,0.16c0,0,0,0,0,0   c0.3,0,0.53-0.24,0.53-0.54C8.17,21.52,7.94,21.29,7.64,21.29z"/>
    <path d="M7.65,16.83c-0.29,0-0.54,0.21-0.55,0.51c-0.01,0.15,0.05,0.29,0.15,0.4c0.1,0.11,0.24,0.16,0.39,0.16   c0,0,0,0,0,0c0.3,0,0.53-0.23,0.53-0.53C8.17,17.06,7.95,16.84,7.65,16.83z"/>
    <path d="M3.97,16.28c0,0,0.01,0,0.01,0c0.29,0,0.53-0.23,0.54-0.52c0.01-0.3-0.22-0.54-0.51-0.55   c-0.15-0.01-0.3,0.05-0.4,0.15c-0.1,0.1-0.16,0.24-0.16,0.38C3.44,16.03,3.68,16.28,3.97,16.28z"/>
    <path d="M11.29,15.6C11.28,15.6,11.28,15.6,11.29,15.6c-0.3,0-0.53,0.24-0.54,0.53c-0.01,0.3,0.22,0.54,0.51,0.55   c0.01,0,0.01,0,0.02,0c0.14,0,0.28-0.05,0.38-0.15c0.1-0.1,0.16-0.24,0.16-0.39C11.82,15.85,11.57,15.61,11.29,15.6z"/>
    <path d="M4.39,17.22C4.39,17.22,4.39,17.22,4.39,17.22c-0.47,0-0.91,0.18-1.24,0.52c-0.34,0.34-0.52,0.78-0.52,1.24   c0,0.47,0.18,0.91,0.52,1.25c0.33,0.33,0.77,0.52,1.24,0.52c0,0,0,0,0,0c0.95,0,1.76-0.81,1.76-1.76c0-0.46-0.18-0.9-0.52-1.24   C5.3,17.41,4.85,17.22,4.39,17.22z M5.06,19c0,0.37-0.29,0.65-0.67,0.65c0,0,0,0,0,0c-0.19,0-0.36-0.07-0.49-0.2   c-0.12-0.13-0.19-0.3-0.19-0.48c0.01-0.37,0.3-0.65,0.67-0.65c0,0,0,0,0,0c0.18,0,0.35,0.07,0.48,0.19   C4.99,18.64,5.06,18.81,5.06,19z"/>
    <path d="M8.03,15.48c0.45,0,0.88-0.17,1.2-0.48c0.34-0.33,0.54-0.77,0.55-1.25c0.02-0.96-0.75-1.77-1.72-1.8   c-0.45-0.01-0.9,0.16-1.24,0.49c-0.34,0.32-0.53,0.74-0.54,1.17C6.26,14.63,7,15.45,7.98,15.48C8,15.48,8.02,15.48,8.03,15.48z    M7.55,13.25c0.13-0.13,0.3-0.2,0.49-0.2c0,0,0,0,0,0c0.37,0,0.66,0.29,0.66,0.66c0,0.18-0.07,0.35-0.2,0.48   c-0.13,0.13-0.29,0.19-0.48,0.19c0,0-0.01,0-0.01,0c-0.37,0-0.67-0.3-0.67-0.67C7.36,13.54,7.43,13.37,7.55,13.25z"/>
    <path d="M10.45,18.84c-0.74,0.02-1.34,0.63-1.33,1.37c0.01,0.74,0.61,1.34,1.35,1.34c0,0,0,0,0.01,0   c0.36,0,0.7-0.14,0.95-0.4c0.26-0.26,0.4-0.61,0.4-0.98c0-0.35-0.15-0.7-0.41-0.95C11.14,18.97,10.8,18.82,10.45,18.84z    M10.74,20.2c0,0.14-0.12,0.26-0.27,0.26h0c-0.07,0.02-0.15-0.03-0.2-0.08c-0.05-0.05-0.08-0.12-0.07-0.19   c0-0.15,0.11-0.25,0.26-0.26c0,0,0,0,0,0c0.07,0,0.15,0.03,0.2,0.08C10.72,20.07,10.74,20.14,10.74,20.2z"/>
    <path d="M24.7,2.86c-0.62-1.34-1.65-2.22-3.06-2.61c-0.36-0.1-0.54-0.03-0.74,0.29c-0.26,0.4-0.45,0.83-0.59,1.27   c0,0.01,0,0.01-0.01,0.02c0,0-0.01,0-0.01,0c-1.43-0.72-2.95-0.96-4.51-0.71C14,1.4,12.48,2.26,11.27,3.66   C10.74,4.28,10.38,5,10.02,5.73c-1.04,2.09-2.74,3.64-5.19,4.76c-2.39,1.08-3.84,2.81-4.44,5.28c-0.03,0.13-0.05,0.26-0.07,0.39   c-0.02,0.12-0.04,0.23-0.06,0.34l-0.06-0.15v2.04l0.03-0.08c0,0.03,0.01,0.06,0.01,0.1c0.01,0.15,0.02,0.3,0.06,0.45   c0.59,2.58,2.12,4.42,4.54,5.46c0.54,0.23,1.12,0.38,1.78,0.45l-0.09,0.03h1.44h0.38h0.4l-0.19-0.06c0.59-0.06,1.19-0.21,1.78-0.45   c2.18-0.88,4.3-2.14,6.29-3.74c3.16-2.53,5.55-5.58,7.09-9.07c0.62-1.4,0.79-2.86,0.53-4.33c-0.16-0.91-0.49-1.76-1-2.6   c0.48-0.25,0.9-0.54,1.27-0.89C24.82,3.39,24.86,3.2,24.7,2.86z M14.35,14.18c-0.9-1.99-3.06-4.1-6.49-4.24   C8.17,9.7,8.45,9.47,8.72,9.22c1.01-0.94,1.82-2.06,2.47-3.42c1.01-2.11,2.7-3.34,5.02-3.66c3.19-0.43,6.3,1.79,6.94,4.97   c0.3,1.47,0.09,2.92-0.64,4.44c-1.79,3.73-4.56,6.89-8.23,9.39c-0.08,0.05-0.16,0.11-0.24,0.16C15.3,18.83,15.4,16.51,14.35,14.18z    M13.98,17.38c0,3.49-2.85,6.33-6.34,6.34c0,0-0.01,0-0.01,0c-1.68,0-3.27-0.66-4.47-1.86c-1.21-1.21-1.87-2.8-1.88-4.49   c0-1.69,0.66-3.28,1.86-4.48c1.21-1.21,2.81-1.87,4.52-1.87c0.01,0,0.01,0,0.02,0C11.15,11.02,13.98,13.88,13.98,17.38z    M22.63,3.65c0,0-0.01-0.01-0.04-0.04c-0.37-0.45-0.8-0.84-1.27-1.18c-0.06-0.04-0.06-0.05-0.05-0.09c0.1-0.35,0.22-0.66,0.37-0.94   c0.01-0.01,0.01-0.02,0.01-0.03c0.01,0,0.01,0,0.02,0.01c0.82,0.31,1.46,0.86,1.9,1.63c0,0,0,0.01,0.01,0.01   c0,0-0.01,0.01-0.01,0.01C23.32,3.26,23.01,3.46,22.63,3.65z M8.32,24.64l0-0.02c0,0,0,0,0,0L8.32,24.64L8.32,24.64z"/>
  </symbol>
  <symbol id="products" viewBox="0 0 25 25">
    <path d="M24.58,2.76c0-0.68-0.26-1.11-0.87-1.41c-0.17-0.08-0.32-0.15-0.47-0.2c-0.95-0.35-1.95-0.49-2.8-0.59   c-2.34-0.26-4.59-0.17-6.71,0.26c-0.66,0.13-1.35,0.31-1.95,0.74c-0.36,0.25-0.52,0.57-0.52,1.01c0.01,1.96,0.01,3.94,0.01,5.87   l0,2.18c-0.12-0.01-0.25-0.02-0.37-0.03c-0.31-0.02-0.59-0.04-0.89-0.06c-2.51-0.13-4.69,0.06-6.67,0.56   c-0.66,0.17-1.5,0.43-2.22,0.97c-0.49,0.37-0.72,0.82-0.71,1.41c0.02,2.9,0.02,5.55,0,8.09c-0.01,0.63,0.24,1.1,0.76,1.48   c0.45,0.33,0.97,0.57,1.69,0.79c1.25,0.38,2.63,0.6,4.35,0.7c0.52,0.03,1.03,0.04,1.52,0.04c1.7,0,3.27-0.16,4.75-0.49   c0.76-0.17,1.64-0.41,2.44-0.93c0.68-0.44,0.97-0.95,0.9-1.61c0-0.02,0-0.04,0-0.07c0,0,0,0,0,0l0.06,0c0.06,0,0.12,0,0.18,0   c1.96,0.05,3.55-0.08,5.02-0.39c0.63-0.13,1.29-0.3,1.87-0.67c0.43-0.27,0.63-0.63,0.63-1.13C24.57,14.01,24.56,8.37,24.58,2.76z    M19.02,8.33c-1.01-0.29-2.13-0.16-3.06,0.38c-0.92,0.52-1.58,1.38-1.86,2.43c-0.63-0.13-1.27-0.26-1.91-0.4V6.64   c1.91,0.77,3.89,0.88,5.74,0.88c0,0,0.01,0,0.01,0c1.85,0,3.82-0.11,5.74-0.88l0,2.05c0,2.19,0,4.45,0.01,6.68   c0,0.26-0.09,0.4-0.28,0.47c-0.15,0.05-0.29,0.1-0.44,0.15c-0.48,0.16-0.97,0.33-1.46,0.42c-1.48,0.28-3.03,0.37-4.61,0.27   c-0.02,0-0.03,0-0.05-0.01V15.9c1.29,0.33,2.46,0.11,3.49-0.67c0.79-0.6,1.29-1.4,1.48-2.39C22.17,10.87,20.95,8.89,19.02,8.33z    M12.41,2.23c0.47-0.19,1.08-0.42,1.73-0.56c1.18-0.26,2.39-0.33,3.85-0.35c1.43,0.03,3.09,0.11,4.66,0.58   c0.24,0.07,0.49,0.17,0.77,0.31c0.07,0.03,0.12,0.1,0.18,0.17c0.02,0.02,0.03,0.04,0.05,0.05c-0.02,0.02-0.03,0.04-0.05,0.06   c-0.06,0.07-0.12,0.13-0.18,0.16L23.26,2.7c-0.37,0.15-0.75,0.3-1.14,0.39c-1.51,0.35-3.19,0.49-5.13,0.41   c-0.96-0.04-2.22-0.12-3.45-0.46c-0.37-0.1-0.75-0.24-1.14-0.43c-0.21-0.1-0.23-0.17-0.23-0.2C12.17,2.36,12.26,2.29,12.41,2.23z    M12.17,3.53c1.93,0.77,3.91,0.88,5.76,0.88c1.85,0,3.82-0.11,5.74-0.88c0,0.14,0,0.28,0,0.42c0,0.5,0,1.02-0.01,1.52   c0,0.07-0.13,0.21-0.23,0.25l-0.2,0.08c-0.42,0.16-0.85,0.33-1.29,0.43c-1.5,0.33-3.12,0.45-4.96,0.37   c-1.01-0.04-2.33-0.14-3.61-0.51c-0.26-0.07-0.52-0.19-0.77-0.29L12.4,5.72c-0.17-0.07-0.24-0.2-0.24-0.4   c0.01-0.44,0.01-0.9,0.01-1.34C12.17,3.83,12.17,3.68,12.17,3.53z M1.75,12.73c0.69-0.46,1.47-0.67,2.22-0.85   c1.64-0.39,3.28-0.46,4.66-0.48c1.73,0.03,3.58,0.13,5.36,0.68c0.53,0.16,1.03,0.38,1.48,0.65c0.29,0.17,0.44,0.35,0.45,0.53   c0,0.19-0.14,0.38-0.44,0.58c-0.69,0.45-1.49,0.67-2.18,0.83c-1.75,0.39-3.62,0.54-5.73,0.45c-1.21-0.05-2.79-0.17-4.32-0.65   c-0.53-0.17-1.04-0.39-1.5-0.66c-0.28-0.17-0.42-0.34-0.43-0.51C1.32,13.11,1.46,12.92,1.75,12.73z M13.83,23.06   c-1.15,0.31-2.2,0.48-3.2,0.52c-1.14,0.04-2.36,0.08-3.55,0.04c-1.25-0.04-2.51-0.24-3.73-0.58c-0.03-0.01-0.06-0.02-0.08-0.03   l-0.01,0v-5.24c3.56,0.81,7.17,0.81,10.72,0c0,0.04,0.01,0.09,0.01,0.13v1.32c0,1.21,0,2.42,0,3.62   C13.99,22.98,13.96,23.03,13.83,23.06z M15.62,22.25c-0.17,0.12-0.35,0.23-0.55,0.34c-0.06,0.04-0.13,0.07-0.19,0.11l0-5.46   c0-0.24-0.06-0.39-0.18-0.48c-0.12-0.09-0.29-0.1-0.52-0.02c-1.18,0.37-2.38,0.58-3.59,0.63c-1.03,0.05-2.24,0.09-3.48,0.04   c-1.46-0.06-2.78-0.27-4.03-0.66c-0.25-0.08-0.42-0.07-0.55,0.02c-0.12,0.09-0.18,0.25-0.18,0.51l0,5.44l-0.01,0.01   c-0.07-0.05-0.15-0.1-0.22-0.15c-0.22-0.15-0.45-0.31-0.66-0.48c-0.08-0.06-0.14-0.22-0.14-0.34c-0.01-1.97-0.01-3.97-0.01-5.9   l0-1.23c0.98,0.6,2.07,0.86,2.92,1.03c1.82,0.35,3.73,0.47,5.84,0.35c1.19-0.07,2.75-0.2,4.27-0.69c0.39-0.12,0.77-0.29,1.14-0.45   c0.14-0.06,0.29-0.13,0.44-0.19l0,1.77c0,1.69,0,3.43,0.01,5.14C15.93,21.9,15.84,22.1,15.62,22.25z M15.64,11.67   c-0.03,0.02-0.1,0.02-0.17,0c-0.05-0.01-0.1-0.04-0.15-0.06c-0.03-0.01-0.06-0.03-0.08-0.04c-0.29-0.13-0.29-0.13-0.19-0.43   c0.41-1.22,1.57-2.06,2.84-2.06c0.03,0,0.06,0,0.09,0c1.34,0.04,2.52,0.97,2.87,2.26c0.04,0.15,0.01,0.22-0.12,0.31   c-0.56,0.4-1.03,0.5-1.53,0.32c-0.15-0.05-0.29-0.12-0.39-0.19c-0.47-0.33-0.95-0.5-1.45-0.5c-0.07,0-0.14,0-0.21,0.01   C16.6,11.24,16.11,11.37,15.64,11.67z M16.81,14.73c0.01-0.18,0.01-0.37,0.01-0.55c0-0.17-0.01-0.35,0-0.52   c0.03-0.44-0.01-0.94-0.45-1.37c0.58-0.16,1.24-0.24,1.85,0.18c0.56,0.38,1.09,0.54,1.63,0.46c0.27-0.04,0.53-0.12,0.79-0.2   c0.09-0.03,0.17-0.06,0.26-0.08c-0.07,0.44-0.26,0.89-0.56,1.29c-0.76,1.01-2.08,1.44-3.3,1.07C16.87,14.96,16.8,14.91,16.81,14.73   z M23.42,19.69c-0.12,0.04-0.24,0.09-0.37,0.13c-0.43,0.16-0.87,0.32-1.32,0.41c-1.53,0.31-3.16,0.42-4.85,0.31   c-0.02,0-0.03,0-0.05-0.01v-2.94c2.47,0.02,4.69-0.04,6.84-0.88c0,0.05,0.01,0.11,0.01,0.16c0,0.24,0,0.47,0,0.71   c0,0.55,0,1.11,0.01,1.67C23.69,19.49,23.61,19.62,23.42,19.69z"/>
    <path d="M11.96,20.64c-0.29-0.22-0.6-0.46-0.91-0.68c-1.01-0.72-2.32-0.71-3.32,0.02c-0.11,0.08-0.23,0.17-0.34,0.25   l-0.14,0.1c-0.01-0.02-0.03-0.03-0.04-0.05c-0.05-0.06-0.09-0.12-0.14-0.17c-0.41-0.45-0.9-0.68-1.46-0.69c-0.01,0-0.02,0-0.02,0   c-0.19,0-0.34,0.06-0.42,0.17c-0.09,0.12-0.1,0.29-0.04,0.49c0.03,0.09,0.06,0.18,0.09,0.28c0.06,0.16,0.11,0.33,0.16,0.5   c0.03,0.11,0.03,0.23,0,0.34c-0.04,0.15-0.1,0.31-0.15,0.46c-0.04,0.12-0.08,0.24-0.12,0.37c-0.05,0.17-0.03,0.32,0.05,0.43   c0.08,0.11,0.23,0.18,0.4,0.18c0,0,0,0,0.01,0c0.11,0,0.22-0.01,0.34-0.03c0.54-0.1,0.98-0.39,1.34-0.88   c0.05,0.04,0.1,0.07,0.14,0.11c0.13,0.1,0.25,0.19,0.38,0.28c0.53,0.36,1.07,0.55,1.62,0.55c0.36,0,0.72-0.08,1.08-0.25   c0.46-0.21,0.87-0.53,1.27-0.83c0.1-0.08,0.2-0.15,0.3-0.23c0.1-0.08,0.16-0.18,0.16-0.3C12.18,20.9,12.1,20.75,11.96,20.64z    M6.24,21.49c0.14-0.38,0.13-0.69-0.03-0.98l0.01,0c0.04,0.05,0.08,0.09,0.11,0.14c0.11,0.13,0.22,0.26,0.23,0.39   C6.58,21.2,6.43,21.35,6.24,21.49z M7.84,21.03c1.03-0.93,2.12-0.93,3.1,0C9.96,21.96,8.86,21.96,7.84,21.03z"/>
    <path d="M3.99,14.29c0.25,0.08,0.52,0.14,0.77,0.19c0.11,0.02,0.22,0.05,0.32,0.07l0.01,0l0.01,0   c0.56-0.05,1.16-0.14,1.65-0.54c0.24-0.2,0.38-0.46,0.38-0.73c0-0.27-0.13-0.53-0.38-0.73c-0.14-0.12-0.3-0.21-0.47-0.28   c-0.48-0.2-1.02-0.26-1.64-0.18c-0.48,0.06-0.86,0.22-1.15,0.47c-0.24,0.2-0.37,0.46-0.36,0.73c0,0.27,0.13,0.52,0.37,0.71   C3.68,14.15,3.84,14.24,3.99,14.29z M5.37,12.97c0.4,0.03,0.72,0.15,0.83,0.31c-0.14,0.19-0.55,0.32-1.04,0.32   c-0.01,0-0.01,0-0.02,0c-0.51,0-0.93-0.13-1.09-0.33C4.32,13.01,4.91,12.93,5.37,12.97z"/>
  </symbol>
  <symbol id="drink" viewBox="0 0 25 25">
	<path d="M17.76,24.15c-0.84,0.72-2.15,0.83-3.17,0.01c-0.6,0.61-1.29,0.75-2.09,0.36c-0.16,0.21-0.38,0.21-0.63,0.21   c-2.05-0.01-4.1-0.01-6.15,0c-0.27,0-0.46-0.09-0.55-0.35c-0.01-0.02-0.02-0.03-0.02-0.05c-0.25-0.52-0.6-1.01-0.73-1.56   c-0.13-0.54-0.03-1.13-0.03-1.7c0-2.12,0-4.25,0.01-6.37c0-0.19,0.04-0.4,0.14-0.55c0.54-0.87,0.8-1.8,0.68-2.82   c-0.04-0.33,0.14-0.47,0.48-0.47c1.9,0,3.8,0,5.7,0c0.1,0,0.2,0,0.33,0c0-0.11,0-0.2,0-0.29c0-1.21,0.01-2.41,0-3.62   c0-0.5,0.15-0.93,0.43-1.33c0.64-0.91,1.27-1.82,1.91-2.73c0.03-0.05,0.07-0.1,0.11-0.17c-0.34-0.06-0.44-0.28-0.42-0.59   c0.02-0.23,0-0.46,0-0.69c0.01-0.66,0.54-1.19,1.2-1.19c0.83,0,1.66,0,2.49,0c0.65,0,1.18,0.54,1.19,1.18c0,0.24,0,0.48,0,0.71   c0,0.37-0.05,0.45-0.41,0.58c0.63,0.9,1.24,1.81,1.88,2.69c0.39,0.54,0.57,1.1,0.56,1.77c-0.02,2.02,0.02,4.04-0.02,6.07   c-0.02,0.83-0.15,1.65-0.27,2.47c-0.09,0.59-0.1,1.18-0.07,1.77c0.1,1.58,0.2,3.17,0.3,4.75c0.02,0.38,0.07,0.77,0.02,1.14   c-0.1,0.63-0.49,1.06-1.1,1.25c-0.61,0.19-1.17,0.05-1.64-0.39C17.84,24.23,17.8,24.2,17.76,24.15z M13.27,14.14   c0.02,0.29,0.06,0.57,0.06,0.85c0,2.32-0.01,4.64,0.01,6.96c0.01,0.58-0.06,1.11-0.38,1.6c-0.04,0.06-0.06,0.13-0.09,0.19   c0.42,0.37,1.23,0.11,1.27-0.65c0.02-0.26,0.17-0.4,0.4-0.4c0.23,0,0.38,0.13,0.41,0.39c0.03,0.26,0.16,0.44,0.37,0.58   c0.49,0.33,1.21,0.33,1.71,0c0.21-0.14,0.34-0.32,0.37-0.58c0.03-0.26,0.18-0.4,0.41-0.4c0.23,0,0.38,0.14,0.41,0.4   c0.06,0.52,0.44,0.87,0.88,0.82c0.48-0.06,0.77-0.46,0.73-0.99c-0.06-0.73-0.09-1.46-0.14-2.19c-0.06-0.94-0.13-1.88-0.18-2.82   c-0.04-0.69-0.13-1.38,0.02-2.08c0.11-0.55,0.16-1.12,0.24-1.7C17.57,14.14,15.39,14.14,13.27,14.14z M19.82,13.31   c0-1.65,0-3.27,0-4.88c-2.45,0-4.87,0-7.31,0c0,1.43,0,2.84,0,4.25c0,0.4,0.25,0.63,0.63,0.63c1.97,0,3.93,0,5.9,0   C19.3,13.31,19.55,13.31,19.82,13.31z M5.2,22.29c0.92,0,1.81,0,2.71,0c0.06,0,0.14-0.05,0.17-0.11c0.69-1.16,1.15-2.4,1.17-3.77   c0.02-1.18-0.32-2.27-0.74-3.35C8.49,15,8.38,14.95,8.3,14.95c-0.58-0.01-1.17,0-1.75,0c-0.45,0-0.89,0-1.35,0   C5.2,17.4,5.2,19.82,5.2,22.29z M19.83,7.59c0.01-0.51,0.06-1.01-0.25-1.45c-0.77-1.09-1.53-2.2-2.31-3.29   c-0.06-0.08-0.19-0.14-0.28-0.14c-0.53-0.01-1.07,0-1.6-0.01c-0.17,0-0.26,0.06-0.35,0.19c-0.72,1.05-1.44,2.1-2.19,3.13   c-0.36,0.49-0.36,1.01-0.33,1.58C14.96,7.59,17.38,7.59,19.83,7.59z M6,12.5c0.11,0,0.2,0,0.29,0c1.1,0,2.2,0,3.31,0   c0.31,0,0.5,0.19,0.46,0.47c-0.03,0.22-0.2,0.35-0.48,0.35c-1.17,0-2.34,0-3.51,0c-0.09,0-0.22,0.03-0.26,0.09   c-0.13,0.22-0.24,0.46-0.36,0.71c2.27,0,4.51,0,6.78,0c-0.04-0.1-0.09-0.17-0.11-0.25c-0.13-0.42-0.36-0.65-0.84-0.57   c-0.23,0.04-0.4-0.16-0.4-0.39c0-0.23,0.15-0.4,0.39-0.41c0.13-0.01,0.27,0,0.4,0c0-0.29,0-0.54,0-0.8c-1.9,0-3.79,0-5.68,0   C6,11.96,6,12.21,6,12.5z M12.51,14.97c-0.51,0-1,0-1.52,0c1.03,2.51,0.98,4.93-0.39,7.3c0.66,0,1.28,0,1.91,0   C12.51,19.82,12.51,17.4,12.51,14.97z M8.96,22.29c0.13,0,0.18,0,0.24,0c0.1,0,0.21,0.01,0.3,0c0.07-0.01,0.16-0.05,0.2-0.11   c0.69-1.16,1.15-2.39,1.17-3.76c0.02-1-0.22-1.95-0.55-2.88c-0.23-0.64-0.23-0.64-0.96-0.57C10.38,17.45,10.34,19.89,8.96,22.29z    M12.24,23.12c-2.28,0-4.52,0-6.76,0c0.27,0.8,0.27,0.8,1.07,0.8c0.1,0,0.2,0,0.31,0c1.59,0,3.19,0,4.78,0   c0.09,0,0.22-0.03,0.25-0.09C12.02,23.61,12.12,23.37,12.24,23.12z M14.55,1.87c1.1,0,2.17,0,3.25,0c0-0.13,0.01-0.25,0-0.37   c-0.02-0.25-0.17-0.42-0.42-0.42c-0.8-0.01-1.61-0.01-2.41,0c-0.25,0-0.4,0.17-0.42,0.42C14.54,1.62,14.55,1.74,14.55,1.87z"/>
  </symbol>
  <symbol id="oil" viewBox="0 0 25 25">
    <path d="M23.18,19.31c-0.3-0.73-0.67-1.24-1.18-1.61c-0.92-0.69-1.91-0.78-2.95-0.28c-0.02-0.29-0.05-0.57-0.09-0.85  c0,0,0-0.01,0-0.01c0,0,0,0,0-0.01l-0.14-0.73c1.64-0.89,2.7-2.26,2.99-3.88c0.27-1.55-0.22-3.16-1.34-4.4  c-0.93-1.03-2.29-1.63-3.73-1.67c-1.18-0.03-2.33,0.34-3.24,1.03c0-0.01,0-0.02,0-0.04c0-0.22,0-0.44-0.03-0.67  c0.04-0.69,0.03-1.39,0.02-2.06c0-0.23-0.01-0.46-0.01-0.69l1.34-2.77c0.05-0.11,0.05-0.24-0.02-0.34c-0.07-0.1-0.18-0.17-0.3-0.17  L6.09,0.15c-0.12,0-0.24,0.06-0.3,0.17c-0.07,0.1-0.07,0.24-0.02,0.35l1.37,2.77l0,0.36C7.12,4.58,7.11,5.4,7.15,6.2  C7.13,6.43,7.12,6.65,7.11,6.87C7.1,7.25,7.09,7.6,7,7.94c-0.25,0.97-0.83,1.78-1.84,2.53c-1.45,1.09-2.48,2.55-3.06,4.3  c-0.64,1.77-0.76,3.62-0.37,5.5c0.36,1.74,1.12,3.24,2.24,4.46c0.07,0.07,0.16,0.12,0.26,0.12c0,0,0,0,0,0l0.19,0  c0.16,0,0.32,0,0.48-0.01l5.39-0.01l5.71,0c0.04,0,0.07-0.01,0.1-0.02c0,0,0,0,0,0l0.05,0.01c0.15,0.01,0.29,0.02,0.43,0.02  c0.78,0,1.53-0.17,2.25-0.48c0.47,0.3,0.98,0.46,1.49,0.46c0.7,0,1.39-0.28,1.94-0.85C23.43,22.8,23.81,20.84,23.18,19.31z   M19.93,8.02c0.98,1.08,1.4,2.47,1.17,3.8c-0.23,1.31-1.06,2.43-2.34,3.21c-0.19-0.59-0.45-1.29-0.87-1.97c0,0,0.01,0,0.01-0.01  c0.78-0.59,1.12-1.37,0.99-2.26c-0.13-0.83-0.62-1.45-1.41-1.79c-0.91-0.39-2.02-0.09-2.67,0.72c-0.53-0.54-0.89-1.18-1.09-1.96  c-0.01-0.04-0.03-0.06-0.04-0.09c0.82-0.71,1.91-1.11,3.04-1.08C17.96,6.61,19.13,7.13,19.93,8.02z M17.51,12.44  c-0.55-0.83-1.27-1.57-2.16-2.26c0.44-0.56,1.23-0.79,1.84-0.52c0.57,0.25,0.89,0.65,0.99,1.24C18.27,11.51,18.05,12.02,17.51,12.44  z M5.6,11.04c1.14-0.86,1.81-1.79,2.1-2.93C7.8,7.7,7.81,7.29,7.83,6.89c0.01-0.21,0.01-0.43,0.04-0.64c0-0.02,0-0.04,0-0.06  C7.82,5.4,7.83,4.59,7.84,3.8l0.01-0.44c0-0.06-0.01-0.11-0.04-0.16L6.66,0.86l7.27,0.01L12.8,3.2c-0.02,0.05-0.04,0.1-0.04,0.16  c0,0.26,0,0.52,0.01,0.78c0.01,0.67,0.02,1.37-0.03,2.05c0,0.03,0,0.06,0,0.08c0.03,0.18,0.03,0.38,0.03,0.59  c0,0.27,0,0.55,0.07,0.85c0,0.01,0.01,0.01,0.01,0.02c0.01,0.03,0.02,0.05,0.03,0.07c0.01,0.02,0.02,0.04,0.04,0.06  c0.01,0.01,0.01,0.01,0.01,0.02c0.01,0.01,0.03,0.02,0.04,0.03c0.01,0.01,0.02,0.02,0.04,0.03c0.25,0.99,0.75,1.82,1.49,2.51  c1.07,0.76,1.87,1.58,2.46,2.49L17.02,13c0.04,0.07,0.09,0.13,0.12,0.21c0.01,0.02,0.02,0.03,0.03,0.05  c0.48,0.72,0.76,1.53,0.95,2.16c0.01,0.03,0.01,0.06-0.02,0.13c-0.04,0.07-0.05,0.15-0.03,0.23l0.09,0.46  c-0.07-0.03-0.14-0.06-0.22-0.09c-0.14-0.06-0.32-0.14-0.53-0.22c-0.1-0.04-0.2-0.09-0.32-0.15c-0.91-0.44-2.43-1.17-5.67,0.3  c-3.01,1.37-3.67,1.23-4.37,1.07c-0.1-0.02-0.2-0.04-0.31-0.06c-0.58-0.1-2.6-1.42-3.89-2.32C3.42,13.25,4.33,12,5.6,11.04z   M10.3,24.11l-5.39,0.01c-0.16,0-0.32,0-0.49,0.01l-0.03,0c-0.97-1.1-1.63-2.45-1.96-4.01c-0.33-1.59-0.26-3.15,0.2-4.66  c0.95,0.66,3.19,2.18,4,2.32c0.1,0.02,0.19,0.04,0.28,0.06c0.26,0.06,0.52,0.11,0.86,0.11c0.71,0,1.77-0.24,3.95-1.23  c2.93-1.33,4.21-0.71,5.06-0.31c0.13,0.06,0.25,0.12,0.36,0.16c0.2,0.08,0.37,0.16,0.51,0.22c0.25,0.11,0.45,0.2,0.63,0.23  c0.04,0.29,0.06,0.59,0.06,0.89c0,0,0,0,0,0c-0.2,0.19-0.4,0.41-0.54,0.69c-0.02-0.01-0.05-0.01-0.07-0.02  c-1.32-0.25-2.51,0-3.54,0.74c-0.74,0.53-1.18,1.29-1.24,2.14c-0.06,0.85,0.27,1.66,0.93,2.28c0.15,0.14,0.31,0.26,0.47,0.37  L10.3,24.11z M16.26,24.11c-0.66-0.16-1.34-0.37-1.87-0.88c-0.5-0.48-0.76-1.09-0.71-1.71c0.04-0.63,0.38-1.2,0.95-1.61  c0.88-0.63,1.85-0.83,3-0.62l0.05,0.01c0.09,0.03,0.28,0.08,0.48-0.01c0.83,0.19,1.72,1.05,1.93,1.92c0.2,0.79-0.18,1.74-0.92,2.3  c-0.12,0.09-0.18,0.09-0.23,0.09l-0.1-0.01l-0.09,0.05C17.95,24.01,17.12,24.17,16.26,24.11z M21.77,23.47  c-0.59,0.6-1.36,0.77-2.08,0.51c0.9-0.75,1.33-1.91,1.07-2.95c-0.26-1.03-1.17-1.98-2.15-2.34c0.12-0.15,0.27-0.28,0.42-0.42  l0.09-0.08c0.89-0.52,1.69-0.49,2.46,0.08c0.39,0.29,0.69,0.71,0.94,1.32C23.05,20.86,22.73,22.49,21.77,23.47z"/>
  </symbol>
  <symbol id="milk" viewBox="0 0 25 25">
    <path d="M19.92,15.56c0-2.78,0-5.56-0.01-8.33c0-0.17-0.03-0.37-0.12-0.51c-0.69-1.15-1.39-2.29-2.09-3.44  c-0.04-0.07-0.07-0.16-0.07-0.25c-0.01-0.65,0-1.3-0.01-1.94c0-0.56-0.4-0.96-0.97-0.96c-2.78,0-5.56,0-8.33,0  c-0.56,0-0.96,0.4-0.96,0.96c0,0.63,0,1.27-0.01,1.9c0,0.11-0.04,0.23-0.09,0.32C6.6,4.43,5.91,5.53,5.25,6.65  c-0.1,0.17-0.16,0.39-0.16,0.58c-0.01,5.53,0,11.07-0.01,16.6c0,0.61,0.46,1.03,1.03,1.03c4.26-0.01,8.52-0.01,12.78,0  c0.55,0,1.05-0.4,1.04-1.04C19.91,21.07,19.92,18.31,19.92,15.56z M18.65,6.69c-1.14,0-2.26,0-3.39,0c0.56-0.93,1.12-1.84,1.69-2.79  C17.52,4.84,18.08,5.75,18.65,6.69z M8.34,1.09c2.77,0,5.54,0,8.33,0c0,0.63,0,1.25,0,1.88c-2.78,0-5.55,0-8.33,0  C8.34,2.35,8.34,1.73,8.34,1.09z M13.93,23.9c-2.62,0-5.24,0-7.88,0c0-5.42,0-10.83,0-16.27c2.63,0,5.24,0,7.88,0  C13.93,13.05,13.93,18.47,13.93,23.9z M14.17,6.58c-0.04,0.06-0.14,0.12-0.2,0.12c-2.51,0.01-5.02,0-7.52,0  c-0.02,0-0.04,0-0.09-0.01C6.6,6.28,6.84,5.87,7.08,5.47c0.28-0.47,0.56-0.93,0.84-1.39c0.06-0.09,0.11-0.15,0.24-0.15  c2.5,0.01,5,0,7.5,0c0.03,0,0.07,0,0.14,0.01c-0.39,0.64-0.77,1.25-1.14,1.85C14.5,6.06,14.34,6.33,14.17,6.58z M18.95,23.9  c-1.34,0-2.68,0-4.03,0c0-5.42,0-10.84,0-16.27c1.35,0,2.69,0,4.03,0C18.95,13.05,18.95,18.47,18.95,23.9z"/>
  </symbol>
  <symbol id="east" viewBox="0 0 25 25">
    <path d="M11.79,24.89c-0.84,0-1.69-0.14-2.53-0.44c-2.59-0.91-4.43-3.04-4.93-5.71c-0.34-1.83,0.05-3.67,1.21-5.61    c0.5-0.85,1.08-1.81,1.49-2.79c0.29-0.69,0.44-1.49,0.58-2.26c0.3-1.63,1.16-2.74,2.58-3.34c0.11-0.05,0.23-0.09,0.33-0.12    l0.01-0.3c0.02-0.52,0.04-1.02,0.08-1.51c0.02-0.22,0.11-0.42,0.18-0.59c0.22-0.47,0.51-0.63,0.71-0.68    c0.22-0.05,0.56-0.05,0.99,0.28c0.08,0.06,0.13,0.14,0.15,0.24c0.69-0.65,1.58-1.04,2.66-1.14c0.61-0.06,1.23-0.08,1.82-0.11    c0.4-0.02,0.81-0.03,1.21-0.06c0.72-0.05,1.27-0.11,1.76-0.56c0.12-0.1,0.28-0.13,0.43-0.07c0.14,0.06,0.24,0.19,0.25,0.35    c0.07,1.01-0.19,1.87-0.78,2.62c-0.76,0.95-1.86,1.5-3.16,1.59c-0.67,0.05-1.35-0.05-2-0.15l-0.31-0.04    c-0.46-0.06-0.9-0.16-1.36-0.26c-0.15-0.03-0.31-0.07-0.47-0.1L12.19,4.4c-0.01,0.02-0.02,0.04-0.03,0.06    c0.03,0.01,0.07,0.02,0.14,0.03c1.88,0.25,3.25,1.63,3.58,3.59c0.27,1.6,0.87,3.14,1.89,4.84c0.44,0.74,0.99,1.73,1.25,2.79    c0.72,2.85-0.12,5.4-2.41,7.38C15.23,24.28,13.54,24.89,11.79,24.89z M11.34,4.6l-0.01,0.35c-0.01,0.17-0.12,0.31-0.28,0.37    l-0.16,0.05c-0.12,0.04-0.25,0.08-0.39,0.14C9.34,6,8.66,6.87,8.42,8.19c-0.16,0.86-0.31,1.7-0.63,2.47    c-0.44,1.03-1.02,2.02-1.54,2.89c-1.07,1.79-1.42,3.39-1.11,5.05c0.45,2.38,2.09,4.28,4.39,5.09c2.29,0.8,4.73,0.35,6.54-1.21    c2.07-1.79,2.79-3.99,2.15-6.56c-0.24-0.96-0.75-1.87-1.16-2.57c-1.07-1.79-1.71-3.42-1.99-5.13C14.8,6.62,13.7,5.5,12.19,5.3    c-0.5-0.07-0.71-0.31-0.79-0.5C11.37,4.74,11.35,4.68,11.34,4.6z M11.36,4.03c0,0.1-0.01,0.19-0.01,0.29    c0.01-0.07,0.04-0.14,0.07-0.22C11.4,4.09,11.38,4.06,11.36,4.03z M12.67,3.3c0.02,0,0.03,0,0.05,0.01    c0.21,0.04,0.41,0.09,0.62,0.13c0.45,0.1,0.87,0.19,1.3,0.25l0.31,0.05c0.61,0.09,1.24,0.18,1.82,0.14    c1.09-0.07,1.95-0.51,2.58-1.29c0.32-0.39,0.51-0.83,0.58-1.32c-0.54,0.24-1.08,0.27-1.54,0.3c-0.41,0.03-0.82,0.04-1.23,0.06    c-0.59,0.02-1.19,0.05-1.78,0.1C14.17,1.86,13.28,2.37,12.67,3.3z"/>
	<path d="M11.71,21.6c-0.74,0-1.47-0.22-2.16-0.67c-1.35-0.86-2.01-2.2-1.91-3.87c0.08-1.43,0.65-2.73,1.67-3.87    c0.65-0.72,1.44-1.13,2.27-1.17c0.83-0.04,1.64,0.28,2.35,0.92c1.22,1.11,1.91,2.57,1.99,4.23c-0.02,1.77-0.74,3.05-2.15,3.84    C13.1,21.4,12.4,21.6,11.71,21.6z M11.73,12.84c-0.03,0-0.07,0-0.1,0c-0.61,0.03-1.2,0.34-1.7,0.9c-0.9,1-1.39,2.13-1.46,3.37    C8.38,18.48,8.9,19.54,10,20.24c1.08,0.7,2.23,0.72,3.39,0.06c1.15-0.64,1.71-1.66,1.73-3.11c-0.07-1.41-0.67-2.68-1.73-3.64l0,0    C12.88,13.08,12.31,12.84,11.73,12.84z"/>
    <path d="M12.33,19.9c-0.12,0-0.25-0.06-0.33-0.16c-0.13-0.18-0.1-0.44,0.08-0.57c1.59-1.19,0.73-2.88,0.69-2.96    c-0.1-0.2-0.03-0.45,0.17-0.55c0.2-0.11,0.44-0.03,0.55,0.17c0.44,0.81,0.81,2.7-0.92,3.99C12.5,19.88,12.41,19.9,12.33,19.9z"/>
  </symbol>
  <symbol id="google" viewBox="0 0 24 24">
    <path fill="#4285F4" d="M21 12.206c0-.612-.05-1.227-.158-1.829h-8.66v3.466h4.959a4.16 4.16 0 0 1-1.835 2.735v2.249h2.959C20.002 17.258 21 14.944 21 12.205"></path>
    <path fill="#34A853" d="M12.181 20.998c2.477 0 4.565-.797 6.086-2.172l-2.958-2.249c-.823.549-1.886.86-3.124.86-2.396 0-4.427-1.584-5.155-3.714H3.977v2.318c1.558 3.04 4.733 4.957 8.204 4.957"></path>
    <path fill="#FBBC04" d="M7.027 13.724a5.3 5.3 0 0 1 0-3.446V7.96h-3.05a8.85 8.85 0 0 0 0 8.082z"></path>
    <path fill="#EA4335" d="M12.181 6.562a5.05 5.05 0 0 1 3.523 1.349l2.62-2.57a8.92 8.92 0 0 0-6.143-2.34C8.71 3 5.535 4.918 3.977 7.96l3.05 2.318c.725-2.133 2.76-3.717 5.154-3.717"></path>
  </symbol>
  <symbol id="envelope" fill="none" viewBox="0 0 24 24" stroke="currentColor">
    <path stroke-linecap="round" stroke-width="2" d="m3.5 5.5 7.893 6.036a1 1 0 0 0 1.214 0L20.5 5.5M4 19h16a1 1 0 0 0 1-1V6a1 1 0 0 0-1-1H4a1 1 0 0 0-1 1v12a1 1 0 0 0 1 1Z"/>
  </symbol>
  <symbol id="yandex" fill="#f8604a" viewBox="0 0 24 24">
    <path fill-rule="evenodd" d="M9.528 21 13 14h2v7h2V3h-3.267c-3.21 0-5.91 1.888-5.91 5.664 0 2.694 1.194 4.154 2.984 4.96L7 21zm4.214-16H15v7h-1.258C11.687 12 10 11.17 10 8.59 10 5.92 11.84 5 13.742 5" clip-rule="evenodd"></path>
  </symbol>
  <symbol id="error" aria-hidden="true" fill="#fb2c36" viewBox="0 0 20 20">
    <path d="M10 .5a9.5 9.5 0 1 0 9.5 9.5A9.51 9.51 0 0 0 10 .5Zm3.707 11.793a1 1 0 1 1-1.414 1.414L10 11.414l-2.293 2.293a1 1 0 0 1-1.414-1.414L8.586 10 6.293 7.707a1 1 0 0 1 1.414-1.414L10 8.586l2.293-2.293a1 1 0 0 1 1.414 1.414L11.414 10l2.293 2.293Z"/>
  </symbol>
  <symbol id="warning" aria-hidden="true" fill="#ff6900" viewBox="0 0 20 20">
    <path d="M10 .5a9.5 9.5 0 1 0 9.5 9.5A9.51 9.51 0 0 0 10 .5ZM10 15a1 1 0 1 1 0-2 1 1 0 0 1 0 2Zm1-4a1 1 0 0 1-2 0V6a1 1 0 0 1 2 0v5Z"/>
  </symbol>
  <symbol id="success" aria-hidden="true" fill="#00c951" viewBox="0 0 20 20">
    <path d="M10 .5a9.5 9.5 0 1 0 9.5 9.5A9.51 9.51 0 0 0 10 .5Zm3.707 8.207-4 4a1 1 0 0 1-1.414 0l-2-2a1 1 0 0 1 1.414-1.414L9 10.586l3.293-3.293a1 1 0 0 1 1.414 1.414Z"/>
  </symbol>
</svg>
